/vscmnt/brussel_pixiu_data/_data_brussel/112/vsc11236/PredSimResults/SUBJ09mtu3D/worker8.mot
version=1
nRows=9
nColumns=50
inDegrees=yes
endheader
                time	         pelvis_tilt	         pelvis_list	     pelvis_rotation	           pelvis_tx	           pelvis_ty	           pelvis_tz	       hip_flexion_r	     hip_adduction_r	      hip_rotation_r	        knee_angle_r	       ankle_angle_r	         mtp_angle_r	       hip_flexion_l	     hip_adduction_l	      hip_rotation_l	        knee_angle_l	       ankle_angle_l	         mtp_angle_l	    lumbar_extension	      lumbar_bending	     lumbar_rotation	 ercspn_r/activation	 intobl_r/activation	 extobl_r/activation	    abd_r/activation	    add_r/activation	hamstrings_r/activation	bifemsh_r/activation	glut_max_r/activation	iliopsoas_r/activation	rect_fem_r/activation	  vasti_r/activation	gastroc_r/activation	 soleus_r/activation	tib_ant_r/activation	 ercspn_l/activation	 intobl_l/activation	 extobl_l/activation	    abd_l/activation	    add_l/activation	hamstrings_l/activation	bifemsh_l/activation	glut_max_l/activation	iliopsoas_l/activation	rect_fem_l/activation	  vasti_l/activation	gastroc_l/activation	 soleus_l/activation	tib_ant_l/activation	
          0.59175265	         -4.15050151	          1.06809116	         -8.06104428	          0.73377328	          0.99229228	          0.00476379	        -11.63671756	         -1.74831036	          0.21197716	        -11.20664534	          8.24541975	         31.19751978	         28.13304813	         -1.09146511	         -5.78949583	         -4.89109006	          2.99859281	          0.22992444	        -13.87161508	          0.85618625	          4.03297374	          0.00999999	          0.00999999	          0.00999999	          0.03545269	          0.00999999	          0.01466723	          0.19240694	          0.02459944	          0.01000003	          0.01000000	          0.00999999	          0.17563195	          0.28106386	          0.00999999	          0.02233648	          0.16850112	          0.04389909	          0.07947577	          0.16568166	          0.04724340	          0.15601570	          0.02361255	          0.07654275	          0.02113182	          0.00999999	          0.00999999	          0.00999999	          0.33818353	
          0.60358770	         -4.16072046	          1.09765278	         -7.99560380	          0.75242285	          0.99041961	          0.00453466	        -12.41870398	         -1.90411922	         -0.25439443	        -11.68065611	          7.26330587	         32.81095675	         27.78752424	         -0.90601502	         -5.68805207	         -5.98670167	          2.62513293	          0.22836974	        -13.43328279	          0.50096503	          4.08199496	          0.01000013	          0.01000000	          0.01000005	          0.02961174	          0.01197250	          0.04074941	          0.16070730	          0.02054661	          0.01000000	          0.00999999	          0.01000000	          0.14669603	          0.25788559	          0.00999999	          0.01865648	          0.14074002	          0.03666658	          0.08017642	          0.14839319	          0.04612957	          0.13031162	          0.09310892	          0.06393209	          0.01765029	          0.00999999	          0.01800419	          0.01599657	          0.33785579	
          0.61542275	         -4.15890586	          1.13977798	         -7.89625199	          0.77137172	          0.98870039	          0.00426588	        -13.05214744	         -2.06994811	         -0.75192587	        -12.46546074	          6.19457474	         34.41057383	         27.39338143	         -0.71431187	         -5.57198910	         -7.23172795	          2.28976043	          0.22023326	        -12.96821037	          0.12371052	          4.11315646	          0.01000000	          0.00999999	          0.01000001	          0.02473312	          0.00999999	          0.03631664	          0.13423028	          0.01716149	          0.01000000	          0.00999999	          0.00999999	          0.12252739	          0.21911017	          0.00999999	          0.01558276	          0.11755266	          0.03062564	          0.13640471	          0.13920426	          0.05252152	          0.10884237	          0.12727299	          0.05339908	          0.01474235	          0.00999999	          0.01503794	          0.01336109	          0.38490429	
          0.62725781	         -4.14949883	          1.18317407	         -7.76004049	          0.79030178	          0.98736724	          0.00394293	        -13.43439959	         -2.23423474	         -1.27783967	        -13.69295002	          5.00670336	         35.96039180	         27.03788108	         -0.52009644	         -5.47376824	         -8.50759697	          1.77597558	          0.19425688	        -12.51297723	         -0.26240463	          4.12224511	          0.04733407	          0.00999999	          0.00999999	          0.02065826	          0.01741381	          0.03212772	          0.11211543	          0.01433408	          0.01000001	          0.01000000	          0.00999999	          0.10234062	          0.18301108	          0.00999999	          0.01301546	          0.09818549	          0.02557997	          0.18066447	          0.16563345	          0.04573196	          0.09091025	          0.15960762	          0.04460141	          0.01231350	          0.01000000	          0.01256040	          0.01115981	          0.40911163	
          0.63909286	         -4.13331334	          1.22448668	         -7.58967739	          0.80896989	          0.98658865	          0.00356550	        -13.47422021	         -2.39844907	         -1.82294310	        -15.49244277	          3.70412615	         37.35167221	         26.81939749	         -0.33386224	         -5.39097605	        -10.04868786	          1.48744941	          0.16163011	        -12.09484688	         -0.65365126	          4.10946496	          0.07373952	          0.00999999	          0.00999999	          0.01725474	          0.07047528	          0.02683458	          0.09364409	          0.01197250	          0.02459942	          0.00999999	          0.00999999	          0.08547967	          0.15285942	          0.00999999	          0.02127330	          0.08200911	          0.02136559	          0.21501180	          0.19540970	          0.04483661	          0.07593250	          0.18514100	          0.03725319	          0.01028481	          0.05716262	          0.01049103	          0.00999999	          0.41858377	
          0.65092791	         -4.11263831	          1.25356163	         -7.38368846	          0.82722114	          0.98651723	          0.00315559	        -13.09187148	         -2.55680461	         -2.39490645	        -17.97354147	          2.28567150	         38.39644547	         26.67236459	         -0.16119608	         -5.31565449	        -11.71878142	          1.43465174	          0.12700093	        -11.72930433	         -1.04002778	          4.07172921	          0.09197755	          0.00999999	          0.00999999	          0.01441197	          0.12066092	          0.02242024	          0.07821598	          0.00999999	          0.02054662	          0.00999999	          0.00999999	          0.07139663	          0.12767535	          0.00999999	          0.01776851	          0.06849785	          0.01784554	          0.23222424	          0.22211983	          0.04402816	          0.06342238	          0.19525480	          0.03111561	          0.00999999	          0.10118540	          0.01000000	          0.01000000	          0.40651141	
          0.66276297	         -4.08901401	          1.26141651	         -7.14086622	          0.84498881	          0.98721195	          0.00273774	        -12.24234084	         -2.71262434	         -3.00449784	        -21.20529298	          0.83090728	         38.70633412	         26.49495839	         -0.00137929	         -5.22699013	        -13.33009479	          1.61732036	          0.10011421	        -11.42145661	         -1.41256219	          4.00617869	          0.09415451	          0.00999999	          0.00999999	          0.01203755	          0.15595335	          0.02300208	          0.06532966	          0.00999999	          0.01716151	          0.00999999	          0.00999999	          0.05963381	          0.10664043	          0.00999999	          0.01484110	          0.05721261	          0.01490543	          0.23469787	          0.24056017	          0.04715238	          0.05297334	          0.19392152	          0.02598921	          0.00999999	          0.11841123	          0.01000000	          0.00999999	          0.37647612	
          0.67459802	         -4.06231457	          1.24113487	         -6.85944926	          0.86227943	          0.98860500	          0.00233458	        -10.92725193	         -2.87320281	         -3.62536391	        -25.16078468	         -0.71744126	         38.12553028	         26.21729778	          0.14643783	         -5.09926309	        -14.75242276	          1.98863071	          0.09456169	        -11.16848599	         -1.76459590	          3.90876155	          0.07864226	          0.01211968	          0.01000000	          0.01005433	          0.19402958	          0.02151340	          0.05456640	          0.00999999	          0.01433409	          0.00999999	          0.00999999	          0.04980895	          0.08907108	          0.02423163	          0.01239598	          0.04778665	          0.01244971	          0.23270461	          0.24626020	          0.05110872	          0.04424582	          0.18917483	          0.02170741	          0.00999999	          0.13979083	          0.01000000	          0.01000000	          0.33465503	
          0.68643307	         -4.03333382	          1.19204457	         -6.54265336	          0.87909062	          0.99057087	          0.00197547	         -9.18395781	         -3.04503846	         -4.21118133	        -29.73440544	         -2.34849768	         36.41082692	         25.78562988	          0.28569120	         -4.90737289	        -15.87363478	          2.47270825	          0.15553562	        -10.96772390	         -2.09650179	          3.77701141	          0.08707291	          0.06094902	          0.04238732	          0.00999999	          0.16206260	          0.01796900	          0.04557641	          0.00999999	          0.01197251	          0.00999999	          0.00999999	          0.04160277	          0.07439634	          0.07886057	          0.01035371	          0.03991365	          0.01039859	          0.22378356	          0.20568805	          0.05403321	          0.03695618	          0.15866144	          0.01813104	          0.00999999	          0.16868480	          0.01000000	          0.00999999	          0.29346760	
